<mxfile host="app.diagrams.net" agent="Mozilla/5.0 (Macintosh; Intel Mac OS X 10.15; rv:135.0) Gecko/20100101 Firefox/135.0" version="26.0.16">
  <diagram name="Page-1" id="ZOsxXr-wDAAlMgPpVdyb">
    <mxGraphModel dx="2162" dy="2418" grid="1" gridSize="10" guides="1" tooltips="1" connect="1" arrows="1" fold="1" page="1" pageScale="1" pageWidth="850" pageHeight="1100" math="0" shadow="0">
      <root>
        <mxCell id="0" />
        <mxCell id="1" parent="0" />
        <mxCell id="DtuoqgoCq_AbvDf9QkuY-9" value="&lt;div&gt;Заполнение данных&lt;/div&gt;&lt;div&gt;о товаре&lt;/div&gt;" style="points=[[0.25,0,0],[0.5,0,0],[0.75,0,0],[1,0.25,0],[1,0.5,0],[1,0.75,0],[0.75,1,0],[0.5,1,0],[0.25,1,0],[0,0.75,0],[0,0.5,0],[0,0.25,0]];shape=mxgraph.bpmn.task2;whiteSpace=wrap;rectStyle=rounded;size=10;html=1;container=1;expand=0;collapsible=0;taskMarker=abstract;isLoopSub=1;" parent="1" vertex="1">
          <mxGeometry x="870" y="80" width="120" height="80" as="geometry" />
        </mxCell>
        <mxCell id="DtuoqgoCq_AbvDf9QkuY-19" value="" style="points=[[0.145,0.145,0],[0.5,0,0],[0.855,0.145,0],[1,0.5,0],[0.855,0.855,0],[0.5,1,0],[0.145,0.855,0],[0,0.5,0]];shape=mxgraph.bpmn.event;html=1;verticalLabelPosition=bottom;labelBackgroundColor=#ffffff;verticalAlign=top;align=center;perimeter=ellipsePerimeter;outlineConnect=0;aspect=fixed;outline=boundInt;symbol=cancel;" parent="DtuoqgoCq_AbvDf9QkuY-9" vertex="1">
          <mxGeometry x="10" y="65" width="25" height="25" as="geometry" />
        </mxCell>
        <mxCell id="DtuoqgoCq_AbvDf9QkuY-11" value="" style="edgeStyle=elbowEdgeStyle;fontSize=12;html=1;endArrow=blockThin;endFill=1;rounded=0;exitX=1;exitY=0.5;exitDx=0;exitDy=0;exitPerimeter=0;entryX=0;entryY=0.5;entryDx=0;entryDy=0;entryPerimeter=0;" parent="1" source="DtuoqgoCq_AbvDf9QkuY-6" target="DtuoqgoCq_AbvDf9QkuY-9" edge="1">
          <mxGeometry width="160" relative="1" as="geometry">
            <mxPoint x="830" y="119.68" as="sourcePoint" />
            <mxPoint x="850" y="120" as="targetPoint" />
          </mxGeometry>
        </mxCell>
        <mxCell id="DtuoqgoCq_AbvDf9QkuY-13" value="" style="edgeStyle=elbowEdgeStyle;fontSize=12;html=1;endArrow=blockThin;endFill=1;rounded=0;exitX=1;exitY=0.5;exitDx=0;exitDy=0;exitPerimeter=0;entryX=0;entryY=0.5;entryDx=0;entryDy=0;entryPerimeter=0;" parent="1" source="DtuoqgoCq_AbvDf9QkuY-9" target="DtuoqgoCq_AbvDf9QkuY-45" edge="1">
          <mxGeometry width="160" relative="1" as="geometry">
            <mxPoint x="1100" y="110" as="sourcePoint" />
            <mxPoint x="1049.9999999999998" y="120" as="targetPoint" />
          </mxGeometry>
        </mxCell>
        <mxCell id="DtuoqgoCq_AbvDf9QkuY-20" value="" style="edgeStyle=elbowEdgeStyle;fontSize=12;html=1;endArrow=blockThin;endFill=1;rounded=0;exitX=0.5;exitY=1;exitDx=0;exitDy=0;exitPerimeter=0;" parent="1" source="DtuoqgoCq_AbvDf9QkuY-19" edge="1">
          <mxGeometry width="160" relative="1" as="geometry">
            <mxPoint x="910" y="190" as="sourcePoint" />
            <mxPoint x="970" y="190" as="targetPoint" />
            <Array as="points">
              <mxPoint x="892" y="180" />
            </Array>
          </mxGeometry>
        </mxCell>
        <mxCell id="DtuoqgoCq_AbvDf9QkuY-21" value="" style="points=[[0.145,0.145,0],[0.5,0,0],[0.855,0.145,0],[1,0.5,0],[0.855,0.855,0],[0.5,1,0],[0.145,0.855,0],[0,0.5,0]];shape=mxgraph.bpmn.event;html=1;verticalLabelPosition=bottom;labelBackgroundColor=#ffffff;verticalAlign=top;align=center;perimeter=ellipsePerimeter;outlineConnect=0;aspect=fixed;outline=end;symbol=terminate2;" parent="1" vertex="1">
          <mxGeometry x="970" y="170" width="40" height="40" as="geometry" />
        </mxCell>
        <mxCell id="DtuoqgoCq_AbvDf9QkuY-23" value="" style="edgeStyle=elbowEdgeStyle;fontSize=12;html=1;endArrow=blockThin;endFill=1;rounded=0;exitX=1;exitY=0.5;exitDx=0;exitDy=0;exitPerimeter=0;entryX=0;entryY=0.5;entryDx=0;entryDy=0;entryPerimeter=0;" parent="1" source="DtuoqgoCq_AbvDf9QkuY-45" target="DtuoqgoCq_AbvDf9QkuY-24" edge="1">
          <mxGeometry width="160" relative="1" as="geometry">
            <mxPoint x="1099.9999999999998" y="120" as="sourcePoint" />
            <mxPoint x="1200" y="280" as="targetPoint" />
          </mxGeometry>
        </mxCell>
        <mxCell id="DtuoqgoCq_AbvDf9QkuY-44" value="Да" style="edgeLabel;html=1;align=center;verticalAlign=middle;resizable=0;points=[];" parent="DtuoqgoCq_AbvDf9QkuY-23" vertex="1" connectable="0">
          <mxGeometry x="-0.3817" y="-2" relative="1" as="geometry">
            <mxPoint as="offset" />
          </mxGeometry>
        </mxCell>
        <mxCell id="DtuoqgoCq_AbvDf9QkuY-24" value="Десериализация запроса и валидация" style="points=[[0.25,0,0],[0.5,0,0],[0.75,0,0],[1,0.25,0],[1,0.5,0],[1,0.75,0],[0.75,1,0],[0.5,1,0],[0.25,1,0],[0,0.75,0],[0,0.5,0],[0,0.25,0]];shape=mxgraph.bpmn.task2;whiteSpace=wrap;rectStyle=rounded;size=10;html=1;container=1;expand=0;collapsible=0;taskMarker=abstract;" parent="1" vertex="1">
          <mxGeometry x="1215" y="240" width="120" height="80" as="geometry" />
        </mxCell>
        <mxCell id="DtuoqgoCq_AbvDf9QkuY-25" value="" style="points=[[0.145,0.145,0],[0.5,0,0],[0.855,0.145,0],[1,0.5,0],[0.855,0.855,0],[0.5,1,0],[0.145,0.855,0],[0,0.5,0]];shape=mxgraph.bpmn.event;html=1;verticalLabelPosition=bottom;labelBackgroundColor=#ffffff;verticalAlign=top;align=center;perimeter=ellipsePerimeter;outlineConnect=0;aspect=fixed;outline=boundInt;symbol=error;" parent="DtuoqgoCq_AbvDf9QkuY-24" vertex="1">
          <mxGeometry x="10" y="-10" width="30" height="30" as="geometry" />
        </mxCell>
        <mxCell id="DtuoqgoCq_AbvDf9QkuY-45" value="Данные валидны" style="points=[[0.25,0.25,0],[0.5,0,0],[0.75,0.25,0],[1,0.5,0],[0.75,0.75,0],[0.5,1,0],[0.25,0.75,0],[0,0.5,0]];shape=mxgraph.bpmn.gateway2;html=1;verticalLabelPosition=bottom;labelBackgroundColor=#ffffff;verticalAlign=top;align=center;perimeter=rhombusPerimeter;outlineConnect=0;outline=none;symbol=none;gwType=exclusive;" parent="1" vertex="1">
          <mxGeometry x="1050" y="95" width="50" height="50" as="geometry" />
        </mxCell>
        <mxCell id="DtuoqgoCq_AbvDf9QkuY-46" value="" style="edgeStyle=elbowEdgeStyle;fontSize=12;html=1;endArrow=blockThin;endFill=1;rounded=0;exitX=0.5;exitY=0;exitDx=0;exitDy=0;exitPerimeter=0;entryX=0.5;entryY=0;entryDx=0;entryDy=0;entryPerimeter=0;" parent="1" source="DtuoqgoCq_AbvDf9QkuY-45" target="mSFzK-ioznIF6lpqcWxD-8" edge="1">
          <mxGeometry width="160" relative="1" as="geometry">
            <mxPoint x="990" y="70" as="sourcePoint" />
            <mxPoint x="1110" y="20.000000000000227" as="targetPoint" />
            <Array as="points">
              <mxPoint x="1075" y="60" />
            </Array>
          </mxGeometry>
        </mxCell>
        <mxCell id="DtuoqgoCq_AbvDf9QkuY-48" value="Нет" style="edgeLabel;html=1;align=center;verticalAlign=middle;resizable=0;points=[];" parent="DtuoqgoCq_AbvDf9QkuY-46" vertex="1" connectable="0">
          <mxGeometry x="-0.3455" y="2" relative="1" as="geometry">
            <mxPoint as="offset" />
          </mxGeometry>
        </mxCell>
        <mxCell id="DtuoqgoCq_AbvDf9QkuY-56" value="Заполнение данных об доставке" style="points=[[0.25,0,0],[0.5,0,0],[0.75,0,0],[1,0.25,0],[1,0.5,0],[1,0.75,0],[0.75,1,0],[0.5,1,0],[0.25,1,0],[0,0.75,0],[0,0.5,0],[0,0.25,0]];shape=mxgraph.bpmn.task2;whiteSpace=wrap;rectStyle=rounded;size=10;html=1;container=1;expand=0;collapsible=0;taskMarker=abstract;isLoopSub=1;" parent="1" vertex="1">
          <mxGeometry x="900" y="689.9300000000001" width="120" height="80" as="geometry" />
        </mxCell>
        <mxCell id="DtuoqgoCq_AbvDf9QkuY-64" value="Данные валидны?" style="points=[[0.25,0.25,0],[0.5,0,0],[0.75,0.25,0],[1,0.5,0],[0.75,0.75,0],[0.5,1,0],[0.25,0.75,0],[0,0.5,0]];shape=mxgraph.bpmn.gateway2;html=1;verticalLabelPosition=bottom;labelBackgroundColor=#ffffff;verticalAlign=top;align=center;perimeter=rhombusPerimeter;outlineConnect=0;outline=none;symbol=none;gwType=exclusive;" parent="1" vertex="1">
          <mxGeometry x="1080" y="704.9300000000001" width="50" height="50" as="geometry" />
        </mxCell>
        <mxCell id="DtuoqgoCq_AbvDf9QkuY-65" value="" style="edgeStyle=elbowEdgeStyle;fontSize=12;html=1;endArrow=blockThin;endFill=1;rounded=0;exitX=1;exitY=0.5;exitDx=0;exitDy=0;exitPerimeter=0;entryX=0;entryY=0.5;entryDx=0;entryDy=0;entryPerimeter=0;" parent="1" source="DtuoqgoCq_AbvDf9QkuY-56" target="DtuoqgoCq_AbvDf9QkuY-64" edge="1">
          <mxGeometry width="160" relative="1" as="geometry">
            <mxPoint x="1140" y="769.9300000000001" as="sourcePoint" />
            <mxPoint x="1300" y="769.9300000000001" as="targetPoint" />
          </mxGeometry>
        </mxCell>
        <mxCell id="DtuoqgoCq_AbvDf9QkuY-67" value="" style="edgeStyle=elbowEdgeStyle;fontSize=12;html=1;endArrow=blockThin;endFill=1;rounded=0;exitX=0.5;exitY=0;exitDx=0;exitDy=0;exitPerimeter=0;entryX=0.5;entryY=0;entryDx=0;entryDy=0;entryPerimeter=0;" parent="1" source="DtuoqgoCq_AbvDf9QkuY-64" target="DtuoqgoCq_AbvDf9QkuY-175" edge="1">
          <mxGeometry width="160" relative="1" as="geometry">
            <mxPoint x="1090" y="699.9300000000001" as="sourcePoint" />
            <mxPoint x="1250" y="699.9300000000001" as="targetPoint" />
            <Array as="points">
              <mxPoint x="1105" y="679.9300000000001" />
            </Array>
          </mxGeometry>
        </mxCell>
        <mxCell id="DtuoqgoCq_AbvDf9QkuY-174" value="Нет" style="edgeLabel;html=1;align=center;verticalAlign=middle;resizable=0;points=[];" parent="DtuoqgoCq_AbvDf9QkuY-67" vertex="1" connectable="0">
          <mxGeometry x="-0.9221" y="2" relative="1" as="geometry">
            <mxPoint as="offset" />
          </mxGeometry>
        </mxCell>
        <mxCell id="DtuoqgoCq_AbvDf9QkuY-68" value="" style="edgeStyle=orthogonalEdgeStyle;fontSize=12;html=1;endArrow=blockThin;endFill=1;rounded=0;exitX=1;exitY=0.5;exitDx=0;exitDy=0;exitPerimeter=0;entryX=0.5;entryY=0;entryDx=0;entryDy=0;entryPerimeter=0;" parent="1" source="DtuoqgoCq_AbvDf9QkuY-66" target="DtuoqgoCq_AbvDf9QkuY-56" edge="1">
          <mxGeometry width="160" relative="1" as="geometry">
            <mxPoint x="1390" y="689.9300000000001" as="sourcePoint" />
            <mxPoint x="1550" y="689.9300000000001" as="targetPoint" />
            <Array as="points">
              <mxPoint x="1800" y="670" />
              <mxPoint x="1800" y="610" />
              <mxPoint x="960" y="610" />
            </Array>
          </mxGeometry>
        </mxCell>
        <mxCell id="DtuoqgoCq_AbvDf9QkuY-76" value="" style="edgeStyle=elbowEdgeStyle;fontSize=12;html=1;endArrow=blockThin;endFill=1;rounded=0;exitX=1;exitY=0.5;exitDx=0;exitDy=0;exitPerimeter=0;entryX=0;entryY=0.5;entryDx=0;entryDy=0;entryPerimeter=0;" parent="1" source="DtuoqgoCq_AbvDf9QkuY-64" target="DtuoqgoCq_AbvDf9QkuY-78" edge="1">
          <mxGeometry width="160" relative="1" as="geometry">
            <mxPoint x="1120" y="869.9300000000001" as="sourcePoint" />
            <mxPoint x="1210" y="880" as="targetPoint" />
            <Array as="points">
              <mxPoint x="1160" y="799.9300000000001" />
            </Array>
          </mxGeometry>
        </mxCell>
        <mxCell id="DtuoqgoCq_AbvDf9QkuY-173" value="Да" style="edgeLabel;html=1;align=center;verticalAlign=middle;resizable=0;points=[];" parent="DtuoqgoCq_AbvDf9QkuY-76" vertex="1" connectable="0">
          <mxGeometry x="-0.254" y="1" relative="1" as="geometry">
            <mxPoint as="offset" />
          </mxGeometry>
        </mxCell>
        <mxCell id="DtuoqgoCq_AbvDf9QkuY-78" value="Десериализация запроса и валидация" style="points=[[0.25,0,0],[0.5,0,0],[0.75,0,0],[1,0.25,0],[1,0.5,0],[1,0.75,0],[0.75,1,0],[0.5,1,0],[0.25,1,0],[0,0.75,0],[0,0.5,0],[0,0.25,0]];shape=mxgraph.bpmn.task2;whiteSpace=wrap;rectStyle=rounded;size=10;html=1;container=1;expand=0;collapsible=0;taskMarker=abstract;" parent="1" vertex="1">
          <mxGeometry x="1215" y="835.67" width="120" height="80" as="geometry" />
        </mxCell>
        <mxCell id="DtuoqgoCq_AbvDf9QkuY-79" value="" style="points=[[0.145,0.145,0],[0.5,0,0],[0.855,0.145,0],[1,0.5,0],[0.855,0.855,0],[0.5,1,0],[0.145,0.855,0],[0,0.5,0]];shape=mxgraph.bpmn.event;html=1;verticalLabelPosition=bottom;labelBackgroundColor=#ffffff;verticalAlign=top;align=center;perimeter=ellipsePerimeter;outlineConnect=0;aspect=fixed;outline=boundInt;symbol=error;" parent="DtuoqgoCq_AbvDf9QkuY-78" vertex="1">
          <mxGeometry x="5" y="-10" width="30" height="30" as="geometry" />
        </mxCell>
        <mxCell id="DtuoqgoCq_AbvDf9QkuY-80" value="" style="edgeStyle=elbowEdgeStyle;fontSize=12;html=1;endArrow=blockThin;endFill=1;rounded=0;exitX=0.5;exitY=0;exitDx=0;exitDy=0;exitPerimeter=0;entryX=0;entryY=0.5;entryDx=0;entryDy=0;entryPerimeter=0;" parent="1" source="DtuoqgoCq_AbvDf9QkuY-79" target="DtuoqgoCq_AbvDf9QkuY-175" edge="1">
          <mxGeometry width="160" relative="1" as="geometry">
            <mxPoint x="1150" y="820" as="sourcePoint" />
            <mxPoint x="1310" y="820" as="targetPoint" />
            <Array as="points">
              <mxPoint x="1235" y="760" />
            </Array>
          </mxGeometry>
        </mxCell>
        <mxCell id="DtuoqgoCq_AbvDf9QkuY-83" value="" style="edgeStyle=elbowEdgeStyle;fontSize=12;html=1;endArrow=blockThin;endFill=1;rounded=0;exitX=1;exitY=0.5;exitDx=0;exitDy=0;exitPerimeter=0;" parent="1" source="DtuoqgoCq_AbvDf9QkuY-78" edge="1">
          <mxGeometry width="160" relative="1" as="geometry">
            <mxPoint x="1350" y="875.27" as="sourcePoint" />
            <mxPoint x="1400" y="875.67" as="targetPoint" />
          </mxGeometry>
        </mxCell>
        <mxCell id="DtuoqgoCq_AbvDf9QkuY-97" value="Проверка числа товара" style="points=[[0.25,0,0],[0.5,0,0],[0.75,0,0],[1,0.25,0],[1,0.5,0],[1,0.75,0],[0.75,1,0],[0.5,1,0],[0.25,1,0],[0,0.75,0],[0,0.5,0],[0,0.25,0]];shape=mxgraph.bpmn.task2;whiteSpace=wrap;rectStyle=rounded;size=10;html=1;container=1;expand=0;collapsible=0;taskMarker=abstract;" parent="1" vertex="1">
          <mxGeometry x="1400" y="835.67" width="120" height="80" as="geometry" />
        </mxCell>
        <mxCell id="DtuoqgoCq_AbvDf9QkuY-200" value="" style="points=[[0.145,0.145,0],[0.5,0,0],[0.855,0.145,0],[1,0.5,0],[0.855,0.855,0],[0.5,1,0],[0.145,0.855,0],[0,0.5,0]];shape=mxgraph.bpmn.event;html=1;verticalLabelPosition=bottom;labelBackgroundColor=#ffffff;verticalAlign=top;align=center;perimeter=ellipsePerimeter;outlineConnect=0;aspect=fixed;outline=boundInt;symbol=error;" parent="DtuoqgoCq_AbvDf9QkuY-97" vertex="1">
          <mxGeometry x="5" y="-5.669999999999959" width="30" height="30" as="geometry" />
        </mxCell>
        <mxCell id="DtuoqgoCq_AbvDf9QkuY-99" value="" style="edgeStyle=elbowEdgeStyle;fontSize=12;html=1;endArrow=blockThin;endFill=1;rounded=0;exitX=1;exitY=0.5;exitDx=0;exitDy=0;exitPerimeter=0;entryX=0;entryY=0.5;entryDx=0;entryDy=0;entryPerimeter=0;" parent="1" source="DtuoqgoCq_AbvDf9QkuY-97" target="DtuoqgoCq_AbvDf9QkuY-201" edge="1">
          <mxGeometry width="160" relative="1" as="geometry">
            <mxPoint x="1530" y="815.67" as="sourcePoint" />
            <mxPoint x="1560" y="875.67" as="targetPoint" />
          </mxGeometry>
        </mxCell>
        <mxCell id="DtuoqgoCq_AbvDf9QkuY-102" value="" style="shape=datastore;html=1;labelPosition=center;verticalLabelPosition=bottom;align=center;verticalAlign=top;" parent="1" vertex="1">
          <mxGeometry x="1435" y="935.67" width="50" height="50" as="geometry" />
        </mxCell>
        <mxCell id="DtuoqgoCq_AbvDf9QkuY-103" value="" style="edgeStyle=elbowEdgeStyle;fontSize=12;html=1;endFill=0;startFill=0;endSize=6;startSize=6;dashed=1;dashPattern=1 4;endArrow=openThin;startArrow=none;rounded=0;exitX=0.5;exitY=0;exitDx=0;exitDy=0;entryX=0.5;entryY=1;entryDx=0;entryDy=0;entryPerimeter=0;" parent="1" source="DtuoqgoCq_AbvDf9QkuY-102" target="DtuoqgoCq_AbvDf9QkuY-97" edge="1">
          <mxGeometry width="160" relative="1" as="geometry">
            <mxPoint x="1560" y="815.67" as="sourcePoint" />
            <mxPoint x="1520" y="945.67" as="targetPoint" />
          </mxGeometry>
        </mxCell>
        <mxCell id="DtuoqgoCq_AbvDf9QkuY-116" value="Заявка на покупку" style="points=[[0.145,0.145,0],[0.5,0,0],[0.855,0.145,0],[1,0.5,0],[0.855,0.855,0],[0.5,1,0],[0.145,0.855,0],[0,0.5,0]];shape=mxgraph.bpmn.event;html=1;verticalLabelPosition=bottom;labelBackgroundColor=#ffffff;verticalAlign=top;align=center;perimeter=ellipsePerimeter;outlineConnect=0;aspect=fixed;outline=standard;symbol=general;" parent="1" vertex="1">
          <mxGeometry x="795" y="1110" width="50" height="50" as="geometry" />
        </mxCell>
        <mxCell id="DtuoqgoCq_AbvDf9QkuY-118" value="Просмотр заявки" style="points=[[0.25,0,0],[0.5,0,0],[0.75,0,0],[1,0.25,0],[1,0.5,0],[1,0.75,0],[0.75,1,0],[0.5,1,0],[0.25,1,0],[0,0.75,0],[0,0.5,0],[0,0.25,0]];shape=mxgraph.bpmn.task2;whiteSpace=wrap;rectStyle=rounded;size=10;html=1;container=1;expand=0;collapsible=0;taskMarker=abstract;" parent="1" vertex="1">
          <mxGeometry x="910" y="1095" width="120" height="80" as="geometry" />
        </mxCell>
        <mxCell id="DtuoqgoCq_AbvDf9QkuY-119" style="edgeStyle=orthogonalEdgeStyle;rounded=0;orthogonalLoop=1;jettySize=auto;html=1;exitX=1;exitY=0.5;exitDx=0;exitDy=0;exitPerimeter=0;entryX=0;entryY=0.5;entryDx=0;entryDy=0;entryPerimeter=0;endArrow=blockThin;endFill=1;" parent="1" source="DtuoqgoCq_AbvDf9QkuY-116" target="DtuoqgoCq_AbvDf9QkuY-118" edge="1">
          <mxGeometry relative="1" as="geometry" />
        </mxCell>
        <mxCell id="DtuoqgoCq_AbvDf9QkuY-120" value="Десериализация запроса и валидация" style="points=[[0.25,0,0],[0.5,0,0],[0.75,0,0],[1,0.25,0],[1,0.5,0],[1,0.75,0],[0.75,1,0],[0.5,1,0],[0.25,1,0],[0,0.75,0],[0,0.5,0],[0,0.25,0]];shape=mxgraph.bpmn.task2;whiteSpace=wrap;rectStyle=rounded;size=10;html=1;container=1;expand=0;collapsible=0;taskMarker=abstract;" parent="1" vertex="1">
          <mxGeometry x="1270" y="1310" width="120" height="80" as="geometry" />
        </mxCell>
        <mxCell id="DtuoqgoCq_AbvDf9QkuY-121" value="" style="points=[[0.145,0.145,0],[0.5,0,0],[0.855,0.145,0],[1,0.5,0],[0.855,0.855,0],[0.5,1,0],[0.145,0.855,0],[0,0.5,0]];shape=mxgraph.bpmn.event;html=1;verticalLabelPosition=bottom;labelBackgroundColor=#ffffff;verticalAlign=top;align=center;perimeter=ellipsePerimeter;outlineConnect=0;aspect=fixed;outline=boundInt;symbol=error;" parent="DtuoqgoCq_AbvDf9QkuY-120" vertex="1">
          <mxGeometry x="5" y="-10" width="30" height="30" as="geometry" />
        </mxCell>
        <mxCell id="DtuoqgoCq_AbvDf9QkuY-125" style="edgeStyle=orthogonalEdgeStyle;rounded=0;orthogonalLoop=1;jettySize=auto;html=1;exitX=1;exitY=0.5;exitDx=0;exitDy=0;exitPerimeter=0;endArrow=blockThin;endFill=1;entryX=0;entryY=0.5;entryDx=0;entryDy=0;entryPerimeter=0;" parent="1" source="DtuoqgoCq_AbvDf9QkuY-123" target="DtuoqgoCq_AbvDf9QkuY-120" edge="1">
          <mxGeometry relative="1" as="geometry" />
        </mxCell>
        <mxCell id="DtuoqgoCq_AbvDf9QkuY-123" value="Ответ на заявку" style="points=[[0.25,0,0],[0.5,0,0],[0.75,0,0],[1,0.25,0],[1,0.5,0],[1,0.75,0],[0.75,1,0],[0.5,1,0],[0.25,1,0],[0,0.75,0],[0,0.5,0],[0,0.25,0]];shape=mxgraph.bpmn.task2;whiteSpace=wrap;rectStyle=rounded;size=10;html=1;container=1;expand=0;collapsible=0;taskMarker=abstract;" parent="1" vertex="1">
          <mxGeometry x="1095" y="1095" width="120" height="80" as="geometry" />
        </mxCell>
        <mxCell id="DtuoqgoCq_AbvDf9QkuY-124" style="edgeStyle=orthogonalEdgeStyle;rounded=0;orthogonalLoop=1;jettySize=auto;html=1;exitX=1;exitY=0.5;exitDx=0;exitDy=0;exitPerimeter=0;entryX=0;entryY=0.5;entryDx=0;entryDy=0;entryPerimeter=0;endArrow=blockThin;endFill=1;" parent="1" source="DtuoqgoCq_AbvDf9QkuY-118" target="DtuoqgoCq_AbvDf9QkuY-123" edge="1">
          <mxGeometry relative="1" as="geometry" />
        </mxCell>
        <mxCell id="DtuoqgoCq_AbvDf9QkuY-128" style="edgeStyle=orthogonalEdgeStyle;rounded=0;orthogonalLoop=1;jettySize=auto;html=1;exitX=1;exitY=0.5;exitDx=0;exitDy=0;exitPerimeter=0;entryX=0.5;entryY=0;entryDx=0;entryDy=0;entryPerimeter=0;" parent="1" source="DtuoqgoCq_AbvDf9QkuY-126" target="DtuoqgoCq_AbvDf9QkuY-118" edge="1">
          <mxGeometry relative="1" as="geometry">
            <mxPoint x="1300" y="1040" as="targetPoint" />
            <Array as="points">
              <mxPoint x="1480" y="1135" />
              <mxPoint x="1480" y="1075" />
              <mxPoint x="970" y="1075" />
            </Array>
          </mxGeometry>
        </mxCell>
        <mxCell id="DtuoqgoCq_AbvDf9QkuY-127" style="edgeStyle=orthogonalEdgeStyle;rounded=0;orthogonalLoop=1;jettySize=auto;html=1;exitX=0.5;exitY=0;exitDx=0;exitDy=0;exitPerimeter=0;entryX=0;entryY=0.5;entryDx=0;entryDy=0;entryPerimeter=0;endArrow=blockThin;endFill=1;" parent="1" source="DtuoqgoCq_AbvDf9QkuY-121" target="DtuoqgoCq_AbvDf9QkuY-126" edge="1">
          <mxGeometry relative="1" as="geometry" />
        </mxCell>
        <mxCell id="DtuoqgoCq_AbvDf9QkuY-147" value="Размещение товара" style="swimlane;html=1;childLayout=stackLayout;resizeParent=1;resizeParentMax=0;horizontal=0;startSize=20;horizontalStack=0;whiteSpace=wrap;" parent="1" vertex="1">
          <mxGeometry x="695" y="-40" width="1435" height="470" as="geometry" />
        </mxCell>
        <mxCell id="DtuoqgoCq_AbvDf9QkuY-148" value="Пользователь" style="swimlane;html=1;startSize=20;horizontal=0;" parent="DtuoqgoCq_AbvDf9QkuY-147" vertex="1">
          <mxGeometry x="20" width="1415" height="260" as="geometry" />
        </mxCell>
        <mxCell id="DtuoqgoCq_AbvDf9QkuY-6" value="&lt;div&gt;Запрос на&amp;nbsp;&lt;/div&gt;&lt;div&gt;размещение товара&lt;/div&gt;&lt;div&gt;&lt;br&gt;&lt;/div&gt;" style="points=[[0.145,0.145,0],[0.5,0,0],[0.855,0.145,0],[1,0.5,0],[0.855,0.855,0],[0.5,1,0],[0.145,0.855,0],[0,0.5,0]];shape=mxgraph.bpmn.event;html=1;verticalLabelPosition=bottom;labelBackgroundColor=#ffffff;verticalAlign=top;align=center;perimeter=ellipsePerimeter;outlineConnect=0;aspect=fixed;outline=standard;symbol=general;" parent="DtuoqgoCq_AbvDf9QkuY-148" vertex="1">
          <mxGeometry x="65" y="140" width="40" height="40" as="geometry" />
        </mxCell>
        <mxCell id="DtuoqgoCq_AbvDf9QkuY-26" value="&lt;div&gt;Вывод сообщения&lt;/div&gt;&lt;div&gt;об ошибке&lt;/div&gt;" style="points=[[0.25,0,0],[0.5,0,0],[0.75,0,0],[1,0.25,0],[1,0.5,0],[1,0.75,0],[0.75,1,0],[0.5,1,0],[0.25,1,0],[0,0.75,0],[0,0.5,0],[0,0.25,0]];shape=mxgraph.bpmn.task2;whiteSpace=wrap;rectStyle=rounded;size=10;html=1;container=1;expand=0;collapsible=0;taskMarker=abstract;" parent="DtuoqgoCq_AbvDf9QkuY-148" vertex="1">
          <mxGeometry x="795" y="70" width="120" height="80" as="geometry" />
        </mxCell>
        <mxCell id="mSFzK-ioznIF6lpqcWxD-12" style="edgeStyle=orthogonalEdgeStyle;rounded=0;orthogonalLoop=1;jettySize=auto;html=1;exitX=1;exitY=0.5;exitDx=0;exitDy=0;exitPerimeter=0;endArrow=blockThin;endFill=1;" parent="DtuoqgoCq_AbvDf9QkuY-148" source="mSFzK-ioznIF6lpqcWxD-8" target="DtuoqgoCq_AbvDf9QkuY-26" edge="1">
          <mxGeometry relative="1" as="geometry" />
        </mxCell>
        <mxCell id="mSFzK-ioznIF6lpqcWxD-8" value="" style="points=[[0.25,0.25,0],[0.5,0,0],[0.75,0.25,0],[1,0.5,0],[0.75,0.75,0],[0.5,1,0],[0.25,0.75,0],[0,0.5,0]];shape=mxgraph.bpmn.gateway2;html=1;verticalLabelPosition=bottom;labelBackgroundColor=#ffffff;verticalAlign=top;align=center;perimeter=rhombusPerimeter;outlineConnect=0;outline=end;symbol=general;" parent="DtuoqgoCq_AbvDf9QkuY-148" vertex="1">
          <mxGeometry x="705" y="90" width="40" height="40" as="geometry" />
        </mxCell>
        <mxCell id="DtuoqgoCq_AbvDf9QkuY-149" value="Бэкенд" style="swimlane;html=1;startSize=20;horizontal=0;" parent="DtuoqgoCq_AbvDf9QkuY-147" vertex="1">
          <mxGeometry x="20" y="260" width="1415" height="210" as="geometry" />
        </mxCell>
        <mxCell id="DtuoqgoCq_AbvDf9QkuY-31" value="&lt;div&gt;Формирование&lt;/div&gt;&lt;div&gt;ответа&lt;/div&gt;" style="points=[[0.25,0,0],[0.5,0,0],[0.75,0,0],[1,0.25,0],[1,0.5,0],[1,0.75,0],[0.75,1,0],[0.5,1,0],[0.25,1,0],[0,0.75,0],[0,0.5,0],[0,0.25,0]];shape=mxgraph.bpmn.task2;whiteSpace=wrap;rectStyle=rounded;size=10;html=1;container=1;expand=0;collapsible=0;taskMarker=abstract;" parent="DtuoqgoCq_AbvDf9QkuY-149" vertex="1">
          <mxGeometry x="955" y="20" width="120" height="80" as="geometry" />
        </mxCell>
        <mxCell id="DtuoqgoCq_AbvDf9QkuY-33" value="&lt;div&gt;Вывод сообщения&lt;/div&gt;&lt;div&gt;об успешном размещении товара&lt;/div&gt;" style="points=[[0.25,0,0],[0.5,0,0],[0.75,0,0],[1,0.25,0],[1,0.5,0],[1,0.75,0],[0.75,1,0],[0.5,1,0],[0.25,1,0],[0,0.75,0],[0,0.5,0],[0,0.25,0]];shape=mxgraph.bpmn.task2;whiteSpace=wrap;rectStyle=rounded;size=10;html=1;container=1;expand=0;collapsible=0;taskMarker=abstract;" parent="DtuoqgoCq_AbvDf9QkuY-149" vertex="1">
          <mxGeometry x="1160" y="-170" width="120" height="80" as="geometry" />
        </mxCell>
        <mxCell id="DtuoqgoCq_AbvDf9QkuY-34" value="" style="edgeStyle=elbowEdgeStyle;fontSize=12;html=1;endArrow=blockThin;endFill=1;rounded=0;exitX=1;exitY=0.5;exitDx=0;exitDy=0;exitPerimeter=0;entryX=0;entryY=0.5;entryDx=0;entryDy=0;entryPerimeter=0;" parent="DtuoqgoCq_AbvDf9QkuY-149" source="DtuoqgoCq_AbvDf9QkuY-31" target="DtuoqgoCq_AbvDf9QkuY-33" edge="1">
          <mxGeometry width="160" relative="1" as="geometry">
            <mxPoint x="970" y="-30" as="sourcePoint" />
            <mxPoint x="1130" y="-30" as="targetPoint" />
          </mxGeometry>
        </mxCell>
        <mxCell id="DtuoqgoCq_AbvDf9QkuY-35" value="&lt;div&gt;Довольный клиент &lt;br&gt;&lt;/div&gt;&lt;div&gt;с размещенным товаром&lt;/div&gt;" style="points=[[0.145,0.145,0],[0.5,0,0],[0.855,0.145,0],[1,0.5,0],[0.855,0.855,0],[0.5,1,0],[0.145,0.855,0],[0,0.5,0]];shape=mxgraph.bpmn.event;html=1;verticalLabelPosition=bottom;labelBackgroundColor=#ffffff;verticalAlign=top;align=center;perimeter=ellipsePerimeter;outlineConnect=0;aspect=fixed;outline=end;symbol=terminate2;" parent="DtuoqgoCq_AbvDf9QkuY-149" vertex="1">
          <mxGeometry x="1340" y="-147.5" width="35" height="35" as="geometry" />
        </mxCell>
        <mxCell id="DtuoqgoCq_AbvDf9QkuY-36" value="" style="edgeStyle=elbowEdgeStyle;fontSize=12;html=1;endArrow=blockThin;endFill=1;rounded=0;exitX=1;exitY=0.5;exitDx=0;exitDy=0;exitPerimeter=0;entryX=0;entryY=0.5;entryDx=0;entryDy=0;entryPerimeter=0;" parent="DtuoqgoCq_AbvDf9QkuY-149" source="DtuoqgoCq_AbvDf9QkuY-33" target="DtuoqgoCq_AbvDf9QkuY-35" edge="1">
          <mxGeometry width="160" relative="1" as="geometry">
            <mxPoint x="1380" y="-80.71000000000001" as="sourcePoint" />
            <mxPoint x="1540" y="-80.71000000000001" as="targetPoint" />
          </mxGeometry>
        </mxCell>
        <mxCell id="DtuoqgoCq_AbvDf9QkuY-38" value="Сохранение карточки товара" style="points=[[0.25,0,0],[0.5,0,0],[0.75,0,0],[1,0.25,0],[1,0.5,0],[1,0.75,0],[0.75,1,0],[0.5,1,0],[0.25,1,0],[0,0.75,0],[0,0.5,0],[0,0.25,0]];shape=mxgraph.bpmn.task2;whiteSpace=wrap;rectStyle=rounded;size=10;html=1;container=1;expand=0;collapsible=0;taskMarker=abstract;" parent="DtuoqgoCq_AbvDf9QkuY-149" vertex="1">
          <mxGeometry x="785" y="20" width="120" height="80" as="geometry" />
        </mxCell>
        <mxCell id="DtuoqgoCq_AbvDf9QkuY-40" value="" style="edgeStyle=elbowEdgeStyle;fontSize=12;html=1;endArrow=blockThin;endFill=1;rounded=0;exitX=1;exitY=0.5;exitDx=0;exitDy=0;exitPerimeter=0;entryX=0;entryY=0.5;entryDx=0;entryDy=0;entryPerimeter=0;" parent="DtuoqgoCq_AbvDf9QkuY-149" source="DtuoqgoCq_AbvDf9QkuY-38" target="DtuoqgoCq_AbvDf9QkuY-31" edge="1">
          <mxGeometry width="160" relative="1" as="geometry">
            <mxPoint x="815" y="-60" as="sourcePoint" />
            <mxPoint x="975" y="-60" as="targetPoint" />
          </mxGeometry>
        </mxCell>
        <mxCell id="DtuoqgoCq_AbvDf9QkuY-41" value="" style="shape=datastore;html=1;labelPosition=center;verticalLabelPosition=bottom;align=center;verticalAlign=top;" parent="DtuoqgoCq_AbvDf9QkuY-149" vertex="1">
          <mxGeometry x="815" y="130" width="60" height="60" as="geometry" />
        </mxCell>
        <mxCell id="DtuoqgoCq_AbvDf9QkuY-43" value="" style="edgeStyle=elbowEdgeStyle;fontSize=12;html=1;endFill=0;startFill=0;endSize=6;startSize=6;dashed=1;dashPattern=1 4;endArrow=openThin;startArrow=none;rounded=0;exitX=0.5;exitY=1;exitDx=0;exitDy=0;exitPerimeter=0;entryX=0.5;entryY=0;entryDx=0;entryDy=0;" parent="DtuoqgoCq_AbvDf9QkuY-149" source="DtuoqgoCq_AbvDf9QkuY-38" target="DtuoqgoCq_AbvDf9QkuY-41" edge="1">
          <mxGeometry width="160" relative="1" as="geometry">
            <mxPoint x="845" y="140" as="sourcePoint" />
            <mxPoint x="1005" y="140" as="targetPoint" />
          </mxGeometry>
        </mxCell>
        <mxCell id="mSFzK-ioznIF6lpqcWxD-1" value="&lt;div&gt;Получение &lt;br&gt;&lt;/div&gt;&lt;div&gt;пользователя&lt;/div&gt;&lt;div&gt;по идентификатору&lt;/div&gt;" style="points=[[0.25,0,0],[0.5,0,0],[0.75,0,0],[1,0.25,0],[1,0.5,0],[1,0.75,0],[0.75,1,0],[0.5,1,0],[0.25,1,0],[0,0.75,0],[0,0.5,0],[0,0.25,0]];shape=mxgraph.bpmn.task2;whiteSpace=wrap;rectStyle=rounded;size=10;html=1;container=1;expand=0;collapsible=0;taskMarker=abstract;" parent="DtuoqgoCq_AbvDf9QkuY-149" vertex="1">
          <mxGeometry x="645" y="20" width="120" height="80" as="geometry" />
        </mxCell>
        <mxCell id="mSFzK-ioznIF6lpqcWxD-6" value="" style="points=[[0.145,0.145,0],[0.5,0,0],[0.855,0.145,0],[1,0.5,0],[0.855,0.855,0],[0.5,1,0],[0.145,0.855,0],[0,0.5,0]];shape=mxgraph.bpmn.event;html=1;verticalLabelPosition=bottom;labelBackgroundColor=#ffffff;verticalAlign=top;align=center;perimeter=ellipsePerimeter;outlineConnect=0;aspect=fixed;outline=boundInt;symbol=error;" parent="mSFzK-ioznIF6lpqcWxD-1" vertex="1">
          <mxGeometry x="10" y="-10" width="30" height="30" as="geometry" />
        </mxCell>
        <mxCell id="mSFzK-ioznIF6lpqcWxD-2" value="" style="shape=datastore;html=1;labelPosition=center;verticalLabelPosition=bottom;align=center;verticalAlign=top;" parent="DtuoqgoCq_AbvDf9QkuY-149" vertex="1">
          <mxGeometry x="675" y="130" width="60" height="60" as="geometry" />
        </mxCell>
        <mxCell id="mSFzK-ioznIF6lpqcWxD-5" style="edgeStyle=orthogonalEdgeStyle;rounded=0;orthogonalLoop=1;jettySize=auto;html=1;exitX=1;exitY=0.5;exitDx=0;exitDy=0;exitPerimeter=0;entryX=0;entryY=0.5;entryDx=0;entryDy=0;entryPerimeter=0;endArrow=blockThin;endFill=1;" parent="DtuoqgoCq_AbvDf9QkuY-149" source="mSFzK-ioznIF6lpqcWxD-1" target="DtuoqgoCq_AbvDf9QkuY-38" edge="1">
          <mxGeometry relative="1" as="geometry" />
        </mxCell>
        <mxCell id="w8JK0ksPYoYFkluPFeoa-1" style="edgeStyle=orthogonalEdgeStyle;rounded=0;orthogonalLoop=1;jettySize=auto;html=1;exitX=0.5;exitY=0;exitDx=0;exitDy=0;entryX=0.5;entryY=1;entryDx=0;entryDy=0;entryPerimeter=0;dashed=1;endArrow=openThin;endFill=0;dashPattern=1 4;" edge="1" parent="DtuoqgoCq_AbvDf9QkuY-149" source="mSFzK-ioznIF6lpqcWxD-2" target="mSFzK-ioznIF6lpqcWxD-1">
          <mxGeometry relative="1" as="geometry" />
        </mxCell>
        <mxCell id="mSFzK-ioznIF6lpqcWxD-11" style="edgeStyle=orthogonalEdgeStyle;rounded=0;orthogonalLoop=1;jettySize=auto;html=1;exitX=0.5;exitY=0;exitDx=0;exitDy=0;exitPerimeter=0;entryX=0.5;entryY=1;entryDx=0;entryDy=0;entryPerimeter=0;endArrow=blockThin;endFill=1;" parent="DtuoqgoCq_AbvDf9QkuY-147" source="mSFzK-ioznIF6lpqcWxD-6" target="mSFzK-ioznIF6lpqcWxD-8" edge="1">
          <mxGeometry relative="1" as="geometry" />
        </mxCell>
        <mxCell id="DtuoqgoCq_AbvDf9QkuY-151" value="Оформление заказа" style="swimlane;html=1;childLayout=stackLayout;resizeParent=1;resizeParentMax=0;horizontal=0;startSize=20;horizontalStack=0;whiteSpace=wrap;" parent="1" vertex="1">
          <mxGeometry x="110" y="595.67" width="2400" height="410" as="geometry" />
        </mxCell>
        <mxCell id="DtuoqgoCq_AbvDf9QkuY-165" style="edgeStyle=orthogonalEdgeStyle;rounded=0;orthogonalLoop=1;jettySize=auto;html=1;exitX=1;exitY=0.5;exitDx=0;exitDy=0;exitPerimeter=0;entryX=0;entryY=0.5;entryDx=0;entryDy=0;entryPerimeter=0;endArrow=block;endFill=1;" parent="DtuoqgoCq_AbvDf9QkuY-151" source="DtuoqgoCq_AbvDf9QkuY-162" target="DtuoqgoCq_AbvDf9QkuY-164" edge="1">
          <mxGeometry relative="1" as="geometry" />
        </mxCell>
        <mxCell id="DtuoqgoCq_AbvDf9QkuY-152" value="Пользователь" style="swimlane;html=1;startSize=20;horizontal=0;" parent="DtuoqgoCq_AbvDf9QkuY-151" vertex="1">
          <mxGeometry x="20" width="2380" height="210" as="geometry" />
        </mxCell>
        <mxCell id="DtuoqgoCq_AbvDf9QkuY-66" value="Вывод сообщения об ошибке" style="points=[[0.25,0,0],[0.5,0,0],[0.75,0,0],[1,0.25,0],[1,0.5,0],[1,0.75,0],[0.75,1,0],[0.5,1,0],[0.25,1,0],[0,0.75,0],[0,0.5,0],[0,0.25,0]];shape=mxgraph.bpmn.task2;whiteSpace=wrap;rectStyle=rounded;size=10;html=1;container=1;expand=0;collapsible=0;taskMarker=abstract;" parent="DtuoqgoCq_AbvDf9QkuY-152" vertex="1">
          <mxGeometry x="1650" y="54.330000000000105" width="120" height="80" as="geometry" />
        </mxCell>
        <mxCell id="DtuoqgoCq_AbvDf9QkuY-161" value="&lt;div&gt;Желание порадовать&lt;/div&gt;&lt;div&gt;женщину на 8 марта&lt;/div&gt;" style="points=[[0.145,0.145,0],[0.5,0,0],[0.855,0.145,0],[1,0.5,0],[0.855,0.855,0],[0.5,1,0],[0.145,0.855,0],[0,0.5,0]];shape=mxgraph.bpmn.event;html=1;verticalLabelPosition=bottom;labelBackgroundColor=#ffffff;verticalAlign=top;align=center;perimeter=ellipsePerimeter;outlineConnect=0;aspect=fixed;outline=standard;symbol=general;" parent="DtuoqgoCq_AbvDf9QkuY-152" vertex="1">
          <mxGeometry x="60" y="114.26000000000002" width="45.74" height="45.74" as="geometry" />
        </mxCell>
        <mxCell id="DtuoqgoCq_AbvDf9QkuY-162" value="Указание фильтров" style="points=[[0.25,0,0],[0.5,0,0],[0.75,0,0],[1,0.25,0],[1,0.5,0],[1,0.75,0],[0.75,1,0],[0.5,1,0],[0.25,1,0],[0,0.75,0],[0,0.5,0],[0,0.25,0]];shape=mxgraph.bpmn.task2;whiteSpace=wrap;rectStyle=rounded;size=10;html=1;container=1;expand=0;collapsible=0;taskMarker=abstract;" parent="DtuoqgoCq_AbvDf9QkuY-152" vertex="1">
          <mxGeometry x="170" y="97.13000000000005" width="120" height="80" as="geometry" />
        </mxCell>
        <mxCell id="DtuoqgoCq_AbvDf9QkuY-163" style="edgeStyle=orthogonalEdgeStyle;rounded=0;orthogonalLoop=1;jettySize=auto;html=1;exitX=1;exitY=0.5;exitDx=0;exitDy=0;exitPerimeter=0;entryX=0;entryY=0.5;entryDx=0;entryDy=0;entryPerimeter=0;endArrow=block;endFill=1;" parent="DtuoqgoCq_AbvDf9QkuY-152" source="DtuoqgoCq_AbvDf9QkuY-161" target="DtuoqgoCq_AbvDf9QkuY-162" edge="1">
          <mxGeometry relative="1" as="geometry" />
        </mxCell>
        <mxCell id="DtuoqgoCq_AbvDf9QkuY-168" value="Выбор товара" style="points=[[0.25,0,0],[0.5,0,0],[0.75,0,0],[1,0.25,0],[1,0.5,0],[1,0.75,0],[0.75,1,0],[0.5,1,0],[0.25,1,0],[0,0.75,0],[0,0.5,0],[0,0.25,0]];shape=mxgraph.bpmn.task2;whiteSpace=wrap;rectStyle=rounded;size=10;html=1;container=1;expand=0;collapsible=0;taskMarker=abstract;" parent="DtuoqgoCq_AbvDf9QkuY-152" vertex="1">
          <mxGeometry x="560" y="94.26000000000003" width="120" height="80" as="geometry" />
        </mxCell>
        <mxCell id="DtuoqgoCq_AbvDf9QkuY-175" value="" style="points=[[0.25,0.25,0],[0.5,0,0],[0.75,0.25,0],[1,0.5,0],[0.75,0.75,0],[0.5,1,0],[0.25,0.75,0],[0,0.5,0]];shape=mxgraph.bpmn.gateway2;html=1;verticalLabelPosition=bottom;labelBackgroundColor=#ffffff;verticalAlign=top;align=center;perimeter=rhombusPerimeter;outlineConnect=0;outline=end;symbol=general;" parent="DtuoqgoCq_AbvDf9QkuY-152" vertex="1">
          <mxGeometry x="1550" y="69.33000000000004" width="50" height="50" as="geometry" />
        </mxCell>
        <mxCell id="DtuoqgoCq_AbvDf9QkuY-176" style="edgeStyle=orthogonalEdgeStyle;rounded=0;orthogonalLoop=1;jettySize=auto;html=1;exitX=1;exitY=0.5;exitDx=0;exitDy=0;exitPerimeter=0;entryX=0;entryY=0.5;entryDx=0;entryDy=0;entryPerimeter=0;endArrow=block;endFill=1;" parent="DtuoqgoCq_AbvDf9QkuY-152" source="DtuoqgoCq_AbvDf9QkuY-175" target="DtuoqgoCq_AbvDf9QkuY-66" edge="1">
          <mxGeometry relative="1" as="geometry" />
        </mxCell>
        <mxCell id="DtuoqgoCq_AbvDf9QkuY-95" value="&lt;div&gt;Вывод сообщения&lt;/div&gt;&lt;div&gt;об успешном оформлении заказа&lt;/div&gt;" style="points=[[0.25,0,0],[0.5,0,0],[0.75,0,0],[1,0.25,0],[1,0.5,0],[1,0.75,0],[0.75,1,0],[0.5,1,0],[0.25,1,0],[0,0.75,0],[0,0.5,0],[0,0.25,0]];shape=mxgraph.bpmn.task2;whiteSpace=wrap;rectStyle=rounded;size=10;html=1;container=1;expand=0;collapsible=0;taskMarker=abstract;" parent="DtuoqgoCq_AbvDf9QkuY-152" vertex="1">
          <mxGeometry x="2090" y="39.330000000000155" width="120" height="80" as="geometry" />
        </mxCell>
        <mxCell id="DtuoqgoCq_AbvDf9QkuY-113" value="" style="edgeStyle=elbowEdgeStyle;fontSize=12;html=1;endArrow=blockThin;endFill=1;rounded=0;exitX=1;exitY=0.5;exitDx=0;exitDy=0;exitPerimeter=0;entryX=0;entryY=0.5;entryDx=0;entryDy=0;entryPerimeter=0;" parent="DtuoqgoCq_AbvDf9QkuY-152" source="DtuoqgoCq_AbvDf9QkuY-95" edge="1">
          <mxGeometry width="160" relative="1" as="geometry">
            <mxPoint x="2175" y="199.4000000000001" as="sourcePoint" />
            <mxPoint x="2285" y="79.40000000000009" as="targetPoint" />
          </mxGeometry>
        </mxCell>
        <mxCell id="DtuoqgoCq_AbvDf9QkuY-115" value="&lt;div&gt;Довольный пользователь&amp;nbsp;&lt;/div&gt;&lt;div&gt;оформил заказ&lt;/div&gt;" style="points=[[0.145,0.145,0],[0.5,0,0],[0.855,0.145,0],[1,0.5,0],[0.855,0.855,0],[0.5,1,0],[0.145,0.855,0],[0,0.5,0]];shape=mxgraph.bpmn.event;html=1;verticalLabelPosition=bottom;labelBackgroundColor=#ffffff;verticalAlign=top;align=center;perimeter=ellipsePerimeter;outlineConnect=0;aspect=fixed;outline=end;symbol=terminate2;" parent="DtuoqgoCq_AbvDf9QkuY-152" vertex="1">
          <mxGeometry x="2285" y="54.330000000000155" width="50" height="50" as="geometry" />
        </mxCell>
        <mxCell id="DtuoqgoCq_AbvDf9QkuY-153" value="ч" style="swimlane;html=1;startSize=20;horizontal=0;" parent="DtuoqgoCq_AbvDf9QkuY-151" vertex="1">
          <mxGeometry x="20" y="210" width="2380" height="200" as="geometry" />
        </mxCell>
        <mxCell id="DtuoqgoCq_AbvDf9QkuY-164" value="Сбор всех карточек товаров согласно фильтрам" style="points=[[0.25,0,0],[0.5,0,0],[0.75,0,0],[1,0.25,0],[1,0.5,0],[1,0.75,0],[0.75,1,0],[0.5,1,0],[0.25,1,0],[0,0.75,0],[0,0.5,0],[0,0.25,0]];shape=mxgraph.bpmn.task2;whiteSpace=wrap;rectStyle=rounded;size=10;html=1;container=1;expand=0;collapsible=0;taskMarker=abstract;" parent="DtuoqgoCq_AbvDf9QkuY-153" vertex="1">
          <mxGeometry x="365" y="34.33000000000004" width="120" height="80" as="geometry" />
        </mxCell>
        <mxCell id="DtuoqgoCq_AbvDf9QkuY-166" value="" style="shape=datastore;html=1;labelPosition=center;verticalLabelPosition=bottom;align=center;verticalAlign=top;" parent="DtuoqgoCq_AbvDf9QkuY-153" vertex="1">
          <mxGeometry x="410" y="134.33" width="50" height="50" as="geometry" />
        </mxCell>
        <mxCell id="DtuoqgoCq_AbvDf9QkuY-167" value="" style="edgeStyle=elbowEdgeStyle;fontSize=12;html=1;endFill=0;startFill=0;endSize=6;startSize=6;dashed=1;dashPattern=1 4;endArrow=openThin;startArrow=none;rounded=0;exitX=0.5;exitY=0;exitDx=0;exitDy=0;entryX=0.583;entryY=0.975;entryDx=0;entryDy=0;entryPerimeter=0;" parent="DtuoqgoCq_AbvDf9QkuY-153" source="DtuoqgoCq_AbvDf9QkuY-166" target="DtuoqgoCq_AbvDf9QkuY-164" edge="1">
          <mxGeometry width="160" relative="1" as="geometry">
            <mxPoint x="200" y="24.33000000000004" as="sourcePoint" />
            <mxPoint x="360" y="24.33000000000004" as="targetPoint" />
          </mxGeometry>
        </mxCell>
        <mxCell id="DtuoqgoCq_AbvDf9QkuY-87" value="Сохранение заявки на получение товара" style="points=[[0.25,0,0],[0.5,0,0],[0.75,0,0],[1,0.25,0],[1,0.5,0],[1,0.75,0],[0.75,1,0],[0.5,1,0],[0.25,1,0],[0,0.75,0],[0,0.5,0],[0,0.25,0]];shape=mxgraph.bpmn.task2;whiteSpace=wrap;rectStyle=rounded;size=10;html=1;container=1;expand=0;collapsible=0;taskMarker=abstract;" parent="DtuoqgoCq_AbvDf9QkuY-153" vertex="1">
          <mxGeometry x="1730" y="30.33000000000004" width="120" height="80" as="geometry" />
        </mxCell>
        <mxCell id="DtuoqgoCq_AbvDf9QkuY-90" value="" style="shape=datastore;html=1;labelPosition=center;verticalLabelPosition=bottom;align=center;verticalAlign=top;" parent="DtuoqgoCq_AbvDf9QkuY-153" vertex="1">
          <mxGeometry x="1765" y="134.33000000000004" width="50" height="50" as="geometry" />
        </mxCell>
        <mxCell id="DtuoqgoCq_AbvDf9QkuY-92" value="Формирование ответа" style="points=[[0.25,0,0],[0.5,0,0],[0.75,0,0],[1,0.25,0],[1,0.5,0],[1,0.75,0],[0.75,1,0],[0.5,1,0],[0.25,1,0],[0,0.75,0],[0,0.5,0],[0,0.25,0]];shape=mxgraph.bpmn.task2;whiteSpace=wrap;rectStyle=rounded;size=10;html=1;container=1;expand=0;collapsible=0;taskMarker=abstract;" parent="DtuoqgoCq_AbvDf9QkuY-153" vertex="1">
          <mxGeometry x="1920" y="30.33000000000004" width="120" height="80" as="geometry" />
        </mxCell>
        <mxCell id="DtuoqgoCq_AbvDf9QkuY-94" value="" style="edgeStyle=elbowEdgeStyle;fontSize=12;html=1;endArrow=blockThin;endFill=1;rounded=0;exitX=1;exitY=0.5;exitDx=0;exitDy=0;exitPerimeter=0;entryX=0;entryY=0.5;entryDx=0;entryDy=0;entryPerimeter=0;" parent="DtuoqgoCq_AbvDf9QkuY-153" source="DtuoqgoCq_AbvDf9QkuY-87" target="DtuoqgoCq_AbvDf9QkuY-92" edge="1">
          <mxGeometry width="160" relative="1" as="geometry">
            <mxPoint x="1870" y="144.33000000000004" as="sourcePoint" />
            <mxPoint x="2030" y="144.33000000000004" as="targetPoint" />
          </mxGeometry>
        </mxCell>
        <mxCell id="DtuoqgoCq_AbvDf9QkuY-106" value="" style="edgeStyle=elbowEdgeStyle;fontSize=12;html=1;endFill=0;startFill=0;endSize=6;startSize=6;dashed=1;dashPattern=1 4;endArrow=openThin;startArrow=none;rounded=0;exitX=0.5;exitY=1;exitDx=0;exitDy=0;exitPerimeter=0;entryX=0.5;entryY=0;entryDx=0;entryDy=0;" parent="DtuoqgoCq_AbvDf9QkuY-153" source="DtuoqgoCq_AbvDf9QkuY-87" target="DtuoqgoCq_AbvDf9QkuY-90" edge="1">
          <mxGeometry width="160" relative="1" as="geometry">
            <mxPoint x="1630" y="14.330000000000041" as="sourcePoint" />
            <mxPoint x="1790" y="14.330000000000041" as="targetPoint" />
          </mxGeometry>
        </mxCell>
        <mxCell id="DtuoqgoCq_AbvDf9QkuY-201" value="Проверка денежных средств" style="points=[[0.25,0,0],[0.5,0,0],[0.75,0,0],[1,0.25,0],[1,0.5,0],[1,0.75,0],[0.75,1,0],[0.5,1,0],[0.25,1,0],[0,0.75,0],[0,0.5,0],[0,0.25,0]];shape=mxgraph.bpmn.task2;whiteSpace=wrap;rectStyle=rounded;size=10;html=1;container=1;expand=0;collapsible=0;taskMarker=abstract;" parent="DtuoqgoCq_AbvDf9QkuY-153" vertex="1">
          <mxGeometry x="1430" y="30.33000000000004" width="120" height="80" as="geometry" />
        </mxCell>
        <mxCell id="DtuoqgoCq_AbvDf9QkuY-202" value="" style="points=[[0.145,0.145,0],[0.5,0,0],[0.855,0.145,0],[1,0.5,0],[0.855,0.855,0],[0.5,1,0],[0.145,0.855,0],[0,0.5,0]];shape=mxgraph.bpmn.event;html=1;verticalLabelPosition=bottom;labelBackgroundColor=#ffffff;verticalAlign=top;align=center;perimeter=ellipsePerimeter;outlineConnect=0;aspect=fixed;outline=boundInt;symbol=error;" parent="DtuoqgoCq_AbvDf9QkuY-201" vertex="1">
          <mxGeometry x="10" y="-6" width="30" height="30" as="geometry" />
        </mxCell>
        <mxCell id="DtuoqgoCq_AbvDf9QkuY-208" value="Снятие денежных средств" style="points=[[0.25,0,0],[0.5,0,0],[0.75,0,0],[1,0.25,0],[1,0.5,0],[1,0.75,0],[0.75,1,0],[0.5,1,0],[0.25,1,0],[0,0.75,0],[0,0.5,0],[0,0.25,0]];shape=mxgraph.bpmn.task2;whiteSpace=wrap;rectStyle=rounded;size=10;html=1;container=1;expand=0;collapsible=0;taskMarker=abstract;" parent="DtuoqgoCq_AbvDf9QkuY-153" vertex="1">
          <mxGeometry x="1580" y="30.33000000000004" width="120" height="80" as="geometry" />
        </mxCell>
        <mxCell id="DtuoqgoCq_AbvDf9QkuY-209" style="edgeStyle=orthogonalEdgeStyle;rounded=0;orthogonalLoop=1;jettySize=auto;html=1;exitX=1;exitY=0.5;exitDx=0;exitDy=0;exitPerimeter=0;entryX=0;entryY=0.5;entryDx=0;entryDy=0;entryPerimeter=0;" parent="DtuoqgoCq_AbvDf9QkuY-153" source="DtuoqgoCq_AbvDf9QkuY-201" target="DtuoqgoCq_AbvDf9QkuY-208" edge="1">
          <mxGeometry relative="1" as="geometry" />
        </mxCell>
        <mxCell id="DtuoqgoCq_AbvDf9QkuY-210" style="edgeStyle=orthogonalEdgeStyle;rounded=0;orthogonalLoop=1;jettySize=auto;html=1;exitX=1;exitY=0.5;exitDx=0;exitDy=0;exitPerimeter=0;entryX=0;entryY=0.5;entryDx=0;entryDy=0;entryPerimeter=0;" parent="DtuoqgoCq_AbvDf9QkuY-153" source="DtuoqgoCq_AbvDf9QkuY-208" target="DtuoqgoCq_AbvDf9QkuY-87" edge="1">
          <mxGeometry relative="1" as="geometry" />
        </mxCell>
        <mxCell id="DtuoqgoCq_AbvDf9QkuY-169" style="edgeStyle=orthogonalEdgeStyle;rounded=0;orthogonalLoop=1;jettySize=auto;html=1;exitX=1;exitY=0.5;exitDx=0;exitDy=0;exitPerimeter=0;entryX=0;entryY=0.5;entryDx=0;entryDy=0;entryPerimeter=0;endArrow=block;endFill=1;" parent="DtuoqgoCq_AbvDf9QkuY-151" source="DtuoqgoCq_AbvDf9QkuY-164" target="DtuoqgoCq_AbvDf9QkuY-168" edge="1">
          <mxGeometry relative="1" as="geometry" />
        </mxCell>
        <mxCell id="DtuoqgoCq_AbvDf9QkuY-108" value="" style="edgeStyle=elbowEdgeStyle;fontSize=12;html=1;endArrow=blockThin;endFill=1;rounded=0;exitX=1;exitY=0.5;exitDx=0;exitDy=0;exitPerimeter=0;entryX=0;entryY=0.5;entryDx=0;entryDy=0;entryPerimeter=0;" parent="DtuoqgoCq_AbvDf9QkuY-151" source="DtuoqgoCq_AbvDf9QkuY-92" target="DtuoqgoCq_AbvDf9QkuY-95" edge="1">
          <mxGeometry width="160" relative="1" as="geometry">
            <mxPoint x="1600" y="214.33000000000004" as="sourcePoint" />
            <mxPoint x="1760" y="214.33000000000004" as="targetPoint" />
          </mxGeometry>
        </mxCell>
        <mxCell id="DtuoqgoCq_AbvDf9QkuY-206" style="edgeStyle=orthogonalEdgeStyle;rounded=0;orthogonalLoop=1;jettySize=auto;html=1;exitX=0.5;exitY=0;exitDx=0;exitDy=0;exitPerimeter=0;entryX=0.5;entryY=1;entryDx=0;entryDy=0;entryPerimeter=0;" parent="DtuoqgoCq_AbvDf9QkuY-151" source="DtuoqgoCq_AbvDf9QkuY-202" target="DtuoqgoCq_AbvDf9QkuY-175" edge="1">
          <mxGeometry relative="1" as="geometry" />
        </mxCell>
        <mxCell id="DtuoqgoCq_AbvDf9QkuY-155" value="Ответ на заявку" style="swimlane;html=1;childLayout=stackLayout;resizeParent=1;resizeParentMax=0;horizontal=0;startSize=20;horizontalStack=0;whiteSpace=wrap;" parent="1" vertex="1">
          <mxGeometry x="710" y="1050" width="1760" height="430" as="geometry" />
        </mxCell>
        <mxCell id="DtuoqgoCq_AbvDf9QkuY-156" value="Ghjlfdtw" style="swimlane;html=1;startSize=20;horizontal=0;" parent="DtuoqgoCq_AbvDf9QkuY-155" vertex="1">
          <mxGeometry x="20" width="1740" height="160" as="geometry" />
        </mxCell>
        <mxCell id="DtuoqgoCq_AbvDf9QkuY-126" value="Вывод сообщения об ошибке" style="points=[[0.25,0,0],[0.5,0,0],[0.75,0,0],[1,0.25,0],[1,0.5,0],[1,0.75,0],[0.75,1,0],[0.5,1,0],[0.25,1,0],[0,0.75,0],[0,0.5,0],[0,0.25,0]];shape=mxgraph.bpmn.task2;whiteSpace=wrap;rectStyle=rounded;size=10;html=1;container=1;expand=0;collapsible=0;taskMarker=abstract;" parent="DtuoqgoCq_AbvDf9QkuY-156" vertex="1">
          <mxGeometry x="1000" y="45" width="120" height="80" as="geometry" />
        </mxCell>
        <mxCell id="DtuoqgoCq_AbvDf9QkuY-135" style="edgeStyle=orthogonalEdgeStyle;rounded=0;orthogonalLoop=1;jettySize=auto;html=1;exitX=0.5;exitY=0;exitDx=0;exitDy=0;exitPerimeter=0;entryX=0;entryY=0.75;entryDx=0;entryDy=0;entryPerimeter=0;" parent="DtuoqgoCq_AbvDf9QkuY-155" source="DtuoqgoCq_AbvDf9QkuY-133" target="DtuoqgoCq_AbvDf9QkuY-126" edge="1">
          <mxGeometry relative="1" as="geometry">
            <Array as="points">
              <mxPoint x="975" y="140" />
              <mxPoint x="600" y="140" />
              <mxPoint x="600" y="105" />
            </Array>
          </mxGeometry>
        </mxCell>
        <mxCell id="DtuoqgoCq_AbvDf9QkuY-178" value="Нет" style="edgeLabel;html=1;align=center;verticalAlign=middle;resizable=0;points=[];" parent="DtuoqgoCq_AbvDf9QkuY-135" vertex="1" connectable="0">
          <mxGeometry x="-0.7274" y="-1" relative="1" as="geometry">
            <mxPoint y="87" as="offset" />
          </mxGeometry>
        </mxCell>
        <mxCell id="ASArZHunimIBYxJA2P08-2" style="edgeStyle=orthogonalEdgeStyle;rounded=0;orthogonalLoop=1;jettySize=auto;html=1;exitX=0.5;exitY=0;exitDx=0;exitDy=0;exitPerimeter=0;entryX=-0.008;entryY=0.875;entryDx=0;entryDy=0;entryPerimeter=0;" parent="DtuoqgoCq_AbvDf9QkuY-155" source="ASArZHunimIBYxJA2P08-1" target="DtuoqgoCq_AbvDf9QkuY-126" edge="1">
          <mxGeometry relative="1" as="geometry" />
        </mxCell>
        <mxCell id="DtuoqgoCq_AbvDf9QkuY-157" value="Бэкенд" style="swimlane;html=1;startSize=20;horizontal=0;" parent="DtuoqgoCq_AbvDf9QkuY-155" vertex="1">
          <mxGeometry x="20" y="160" width="1740" height="270" as="geometry" />
        </mxCell>
        <mxCell id="DtuoqgoCq_AbvDf9QkuY-129" value="Проверка числа товара" style="points=[[0.25,0,0],[0.5,0,0],[0.75,0,0],[1,0.25,0],[1,0.5,0],[1,0.75,0],[0.75,1,0],[0.5,1,0],[0.25,1,0],[0,0.75,0],[0,0.5,0],[0,0.25,0]];shape=mxgraph.bpmn.task2;whiteSpace=wrap;rectStyle=rounded;size=10;html=1;container=1;expand=0;collapsible=0;taskMarker=abstract;" parent="DtuoqgoCq_AbvDf9QkuY-157" vertex="1">
          <mxGeometry x="765" y="100" width="120" height="80" as="geometry" />
        </mxCell>
        <mxCell id="DtuoqgoCq_AbvDf9QkuY-130" value="" style="shape=datastore;html=1;labelPosition=center;verticalLabelPosition=bottom;align=center;verticalAlign=top;" parent="DtuoqgoCq_AbvDf9QkuY-157" vertex="1">
          <mxGeometry x="800" y="200" width="50" height="50" as="geometry" />
        </mxCell>
        <mxCell id="DtuoqgoCq_AbvDf9QkuY-131" value="" style="edgeStyle=elbowEdgeStyle;fontSize=12;html=1;endFill=0;startFill=0;endSize=6;startSize=6;dashed=1;dashPattern=1 4;endArrow=openThin;startArrow=none;rounded=0;exitX=0.5;exitY=0;exitDx=0;exitDy=0;entryX=0.5;entryY=1;entryDx=0;entryDy=0;entryPerimeter=0;" parent="DtuoqgoCq_AbvDf9QkuY-157" source="DtuoqgoCq_AbvDf9QkuY-130" target="DtuoqgoCq_AbvDf9QkuY-129" edge="1">
          <mxGeometry width="160" relative="1" as="geometry">
            <mxPoint x="925" y="80" as="sourcePoint" />
            <mxPoint x="875" y="190" as="targetPoint" />
          </mxGeometry>
        </mxCell>
        <mxCell id="DtuoqgoCq_AbvDf9QkuY-133" value="&lt;div&gt;Числа товаров&lt;/div&gt;&lt;div&gt;&amp;nbsp;достаточно?&lt;/div&gt;" style="points=[[0.25,0.25,0],[0.5,0,0],[0.75,0.25,0],[1,0.5,0],[0.75,0.75,0],[0.5,1,0],[0.25,0.75,0],[0,0.5,0]];shape=mxgraph.bpmn.gateway2;html=1;verticalLabelPosition=bottom;labelBackgroundColor=#ffffff;verticalAlign=top;align=center;perimeter=rhombusPerimeter;outlineConnect=0;outline=none;symbol=none;gwType=exclusive;" parent="DtuoqgoCq_AbvDf9QkuY-157" vertex="1">
          <mxGeometry x="930" y="115" width="50" height="50" as="geometry" />
        </mxCell>
        <mxCell id="DtuoqgoCq_AbvDf9QkuY-134" style="edgeStyle=orthogonalEdgeStyle;rounded=0;orthogonalLoop=1;jettySize=auto;html=1;exitX=1;exitY=0.5;exitDx=0;exitDy=0;exitPerimeter=0;entryX=0;entryY=0.5;entryDx=0;entryDy=0;entryPerimeter=0;endArrow=blockThin;endFill=1;" parent="DtuoqgoCq_AbvDf9QkuY-157" source="DtuoqgoCq_AbvDf9QkuY-129" target="DtuoqgoCq_AbvDf9QkuY-133" edge="1">
          <mxGeometry relative="1" as="geometry" />
        </mxCell>
        <mxCell id="DtuoqgoCq_AbvDf9QkuY-137" value="Обновление статуса заявки" style="points=[[0.25,0,0],[0.5,0,0],[0.75,0,0],[1,0.25,0],[1,0.5,0],[1,0.75,0],[0.75,1,0],[0.5,1,0],[0.25,1,0],[0,0.75,0],[0,0.5,0],[0,0.25,0]];shape=mxgraph.bpmn.task2;whiteSpace=wrap;rectStyle=rounded;size=10;html=1;container=1;expand=0;collapsible=0;taskMarker=abstract;" parent="DtuoqgoCq_AbvDf9QkuY-157" vertex="1">
          <mxGeometry x="1080" y="100" width="120" height="80" as="geometry" />
        </mxCell>
        <mxCell id="ASArZHunimIBYxJA2P08-1" value="" style="points=[[0.145,0.145,0],[0.5,0,0],[0.855,0.145,0],[1,0.5,0],[0.855,0.855,0],[0.5,1,0],[0.145,0.855,0],[0,0.5,0]];shape=mxgraph.bpmn.event;html=1;verticalLabelPosition=bottom;labelBackgroundColor=#ffffff;verticalAlign=top;align=center;perimeter=ellipsePerimeter;outlineConnect=0;aspect=fixed;outline=boundInt;symbol=error;" parent="DtuoqgoCq_AbvDf9QkuY-137" vertex="1">
          <mxGeometry x="5" y="-10" width="30" height="30" as="geometry" />
        </mxCell>
        <mxCell id="DtuoqgoCq_AbvDf9QkuY-138" value="" style="shape=datastore;html=1;labelPosition=center;verticalLabelPosition=bottom;align=center;verticalAlign=top;" parent="DtuoqgoCq_AbvDf9QkuY-157" vertex="1">
          <mxGeometry x="1115" y="200" width="50" height="50" as="geometry" />
        </mxCell>
        <mxCell id="DtuoqgoCq_AbvDf9QkuY-139" value="" style="edgeStyle=elbowEdgeStyle;fontSize=12;html=1;endFill=0;startFill=0;endSize=6;startSize=6;dashed=1;dashPattern=1 4;endArrow=openThin;startArrow=none;rounded=0;exitX=0.5;exitY=1;exitDx=0;exitDy=0;exitPerimeter=0;" parent="DtuoqgoCq_AbvDf9QkuY-157" source="DtuoqgoCq_AbvDf9QkuY-137" target="DtuoqgoCq_AbvDf9QkuY-138" edge="1">
          <mxGeometry width="160" relative="1" as="geometry">
            <mxPoint x="1240" y="80" as="sourcePoint" />
            <mxPoint x="1400" y="80" as="targetPoint" />
          </mxGeometry>
        </mxCell>
        <mxCell id="DtuoqgoCq_AbvDf9QkuY-179" value="" style="points=[[0.25,0.25,0],[0.5,0,0],[0.75,0.25,0],[1,0.5,0],[0.75,0.75,0],[0.5,1,0],[0.25,0.75,0],[0,0.5,0]];shape=mxgraph.bpmn.gateway2;html=1;verticalLabelPosition=bottom;labelBackgroundColor=#ffffff;verticalAlign=top;align=center;perimeter=rhombusPerimeter;outlineConnect=0;outline=none;symbol=none;gwType=exclusive;" parent="DtuoqgoCq_AbvDf9QkuY-157" vertex="1">
          <mxGeometry x="680" y="115" width="50" height="50" as="geometry" />
        </mxCell>
        <mxCell id="DtuoqgoCq_AbvDf9QkuY-180" value="Одобрить заявку?" style="text;html=1;align=center;verticalAlign=middle;resizable=0;points=[];autosize=1;strokeColor=none;fillColor=none;" parent="DtuoqgoCq_AbvDf9QkuY-157" vertex="1">
          <mxGeometry x="640" y="70" width="130" height="30" as="geometry" />
        </mxCell>
        <mxCell id="DtuoqgoCq_AbvDf9QkuY-182" style="edgeStyle=orthogonalEdgeStyle;rounded=0;orthogonalLoop=1;jettySize=auto;html=1;exitX=1;exitY=0.5;exitDx=0;exitDy=0;exitPerimeter=0;entryX=0;entryY=0.5;entryDx=0;entryDy=0;entryPerimeter=0;endArrow=blockThin;endFill=1;" parent="DtuoqgoCq_AbvDf9QkuY-157" source="DtuoqgoCq_AbvDf9QkuY-179" target="DtuoqgoCq_AbvDf9QkuY-129" edge="1">
          <mxGeometry relative="1" as="geometry" />
        </mxCell>
        <mxCell id="DtuoqgoCq_AbvDf9QkuY-185" value="Да" style="edgeLabel;html=1;align=center;verticalAlign=middle;resizable=0;points=[];" parent="DtuoqgoCq_AbvDf9QkuY-182" vertex="1" connectable="0">
          <mxGeometry x="-0.2653" relative="1" as="geometry">
            <mxPoint as="offset" />
          </mxGeometry>
        </mxCell>
        <mxCell id="DtuoqgoCq_AbvDf9QkuY-187" value="" style="points=[[0.25,0.25,0],[0.5,0,0],[0.75,0.25,0],[1,0.5,0],[0.75,0.75,0],[0.5,1,0],[0.25,0.75,0],[0,0.5,0]];shape=mxgraph.bpmn.gateway2;html=1;verticalLabelPosition=bottom;labelBackgroundColor=#ffffff;verticalAlign=top;align=center;perimeter=rhombusPerimeter;outlineConnect=0;outline=end;symbol=general;" parent="DtuoqgoCq_AbvDf9QkuY-157" vertex="1">
          <mxGeometry x="1010" y="115" width="50" height="50" as="geometry" />
        </mxCell>
        <mxCell id="DtuoqgoCq_AbvDf9QkuY-188" style="edgeStyle=orthogonalEdgeStyle;rounded=0;orthogonalLoop=1;jettySize=auto;html=1;exitX=1;exitY=0.5;exitDx=0;exitDy=0;exitPerimeter=0;entryX=0;entryY=0.5;entryDx=0;entryDy=0;entryPerimeter=0;endArrow=blockThin;endFill=1;" parent="DtuoqgoCq_AbvDf9QkuY-157" source="DtuoqgoCq_AbvDf9QkuY-133" target="DtuoqgoCq_AbvDf9QkuY-187" edge="1">
          <mxGeometry relative="1" as="geometry" />
        </mxCell>
        <mxCell id="DtuoqgoCq_AbvDf9QkuY-189" style="edgeStyle=orthogonalEdgeStyle;rounded=0;orthogonalLoop=1;jettySize=auto;html=1;exitX=1;exitY=0.5;exitDx=0;exitDy=0;exitPerimeter=0;entryX=0;entryY=0.5;entryDx=0;entryDy=0;entryPerimeter=0;endArrow=blockThin;endFill=1;" parent="DtuoqgoCq_AbvDf9QkuY-157" source="DtuoqgoCq_AbvDf9QkuY-187" target="DtuoqgoCq_AbvDf9QkuY-137" edge="1">
          <mxGeometry relative="1" as="geometry" />
        </mxCell>
        <mxCell id="DtuoqgoCq_AbvDf9QkuY-183" style="edgeStyle=orthogonalEdgeStyle;rounded=0;orthogonalLoop=1;jettySize=auto;html=1;exitX=0.5;exitY=1;exitDx=0;exitDy=0;exitPerimeter=0;entryX=0.5;entryY=1;entryDx=0;entryDy=0;entryPerimeter=0;endArrow=blockThin;endFill=1;" parent="DtuoqgoCq_AbvDf9QkuY-157" source="DtuoqgoCq_AbvDf9QkuY-179" target="DtuoqgoCq_AbvDf9QkuY-187" edge="1">
          <mxGeometry relative="1" as="geometry">
            <Array as="points">
              <mxPoint x="705" y="260" />
              <mxPoint x="1035" y="260" />
            </Array>
          </mxGeometry>
        </mxCell>
        <mxCell id="DtuoqgoCq_AbvDf9QkuY-184" value="Нет" style="edgeLabel;html=1;align=center;verticalAlign=middle;resizable=0;points=[];" parent="DtuoqgoCq_AbvDf9QkuY-183" vertex="1" connectable="0">
          <mxGeometry x="-0.956" y="2" relative="1" as="geometry">
            <mxPoint as="offset" />
          </mxGeometry>
        </mxCell>
        <mxCell id="w8JK0ksPYoYFkluPFeoa-2" value="Обновление денежных средств покупателя" style="points=[[0.25,0,0],[0.5,0,0],[0.75,0,0],[1,0.25,0],[1,0.5,0],[1,0.75,0],[0.75,1,0],[0.5,1,0],[0.25,1,0],[0,0.75,0],[0,0.5,0],[0,0.25,0]];shape=mxgraph.bpmn.task2;whiteSpace=wrap;rectStyle=rounded;size=10;html=1;container=1;expand=0;collapsible=0;taskMarker=abstract;isLoopSub=1;" vertex="1" parent="DtuoqgoCq_AbvDf9QkuY-157">
          <mxGeometry x="1275" y="100" width="120" height="80" as="geometry" />
        </mxCell>
        <mxCell id="w8JK0ksPYoYFkluPFeoa-3" style="edgeStyle=orthogonalEdgeStyle;rounded=0;orthogonalLoop=1;jettySize=auto;html=1;exitX=1;exitY=0.5;exitDx=0;exitDy=0;exitPerimeter=0;entryX=0;entryY=0.5;entryDx=0;entryDy=0;entryPerimeter=0;endArrow=blockThin;endFill=1;" edge="1" parent="DtuoqgoCq_AbvDf9QkuY-157" source="DtuoqgoCq_AbvDf9QkuY-137" target="w8JK0ksPYoYFkluPFeoa-2">
          <mxGeometry relative="1" as="geometry" />
        </mxCell>
        <mxCell id="w8JK0ksPYoYFkluPFeoa-5" value="" style="shape=datastore;html=1;labelPosition=center;verticalLabelPosition=bottom;align=center;verticalAlign=top;" vertex="1" parent="DtuoqgoCq_AbvDf9QkuY-157">
          <mxGeometry x="1310" y="200" width="50" height="50" as="geometry" />
        </mxCell>
        <mxCell id="w8JK0ksPYoYFkluPFeoa-6" value="" style="edgeStyle=elbowEdgeStyle;fontSize=12;html=1;endFill=0;startFill=0;endSize=6;startSize=6;dashed=1;dashPattern=1 4;endArrow=openThin;startArrow=none;rounded=0;exitX=0.5;exitY=1;exitDx=0;exitDy=0;exitPerimeter=0;" edge="1" parent="DtuoqgoCq_AbvDf9QkuY-157" target="w8JK0ksPYoYFkluPFeoa-5">
          <mxGeometry width="160" relative="1" as="geometry">
            <mxPoint x="1335" y="180" as="sourcePoint" />
            <mxPoint x="1595" y="80" as="targetPoint" />
          </mxGeometry>
        </mxCell>
        <mxCell id="DtuoqgoCq_AbvDf9QkuY-171" style="edgeStyle=orthogonalEdgeStyle;rounded=0;orthogonalLoop=1;jettySize=auto;html=1;exitX=1;exitY=0.5;exitDx=0;exitDy=0;exitPerimeter=0;entryX=0;entryY=0.5;entryDx=0;entryDy=0;entryPerimeter=0;endArrow=block;endFill=1;" parent="1" source="DtuoqgoCq_AbvDf9QkuY-168" target="DtuoqgoCq_AbvDf9QkuY-56" edge="1">
          <mxGeometry relative="1" as="geometry" />
        </mxCell>
        <mxCell id="DtuoqgoCq_AbvDf9QkuY-181" style="edgeStyle=orthogonalEdgeStyle;rounded=0;orthogonalLoop=1;jettySize=auto;html=1;exitX=1;exitY=0.5;exitDx=0;exitDy=0;exitPerimeter=0;endArrow=blockThin;endFill=1;" parent="1" source="DtuoqgoCq_AbvDf9QkuY-120" edge="1">
          <mxGeometry relative="1" as="geometry">
            <mxPoint x="1420" y="1350" as="targetPoint" />
          </mxGeometry>
        </mxCell>
        <mxCell id="DtuoqgoCq_AbvDf9QkuY-205" style="edgeStyle=orthogonalEdgeStyle;rounded=0;orthogonalLoop=1;jettySize=auto;html=1;exitX=0.5;exitY=0;exitDx=0;exitDy=0;exitPerimeter=0;entryX=0.25;entryY=0.75;entryDx=0;entryDy=0;entryPerimeter=0;" parent="1" source="DtuoqgoCq_AbvDf9QkuY-200" target="DtuoqgoCq_AbvDf9QkuY-175" edge="1">
          <mxGeometry relative="1" as="geometry">
            <mxPoint x="1670" y="710" as="targetPoint" />
            <Array as="points">
              <mxPoint x="1420" y="703" />
            </Array>
          </mxGeometry>
        </mxCell>
        <mxCell id="mSFzK-ioznIF6lpqcWxD-4" style="edgeStyle=orthogonalEdgeStyle;rounded=0;orthogonalLoop=1;jettySize=auto;html=1;exitX=1;exitY=0.5;exitDx=0;exitDy=0;exitPerimeter=0;entryX=0;entryY=0.5;entryDx=0;entryDy=0;entryPerimeter=0;endArrow=blockThin;endFill=1;" parent="1" source="DtuoqgoCq_AbvDf9QkuY-24" target="mSFzK-ioznIF6lpqcWxD-1" edge="1">
          <mxGeometry relative="1" as="geometry" />
        </mxCell>
        <mxCell id="mSFzK-ioznIF6lpqcWxD-7" style="edgeStyle=orthogonalEdgeStyle;rounded=0;orthogonalLoop=1;jettySize=auto;html=1;exitX=1;exitY=0.5;exitDx=0;exitDy=0;exitPerimeter=0;entryX=0.5;entryY=0;entryDx=0;entryDy=0;entryPerimeter=0;" parent="1" source="DtuoqgoCq_AbvDf9QkuY-26" target="DtuoqgoCq_AbvDf9QkuY-9" edge="1">
          <mxGeometry relative="1" as="geometry">
            <Array as="points">
              <mxPoint x="1680" y="70" />
              <mxPoint x="1680" />
              <mxPoint x="930" />
            </Array>
          </mxGeometry>
        </mxCell>
        <mxCell id="mSFzK-ioznIF6lpqcWxD-9" style="edgeStyle=orthogonalEdgeStyle;rounded=0;orthogonalLoop=1;jettySize=auto;html=1;exitX=0.5;exitY=0;exitDx=0;exitDy=0;exitPerimeter=0;entryX=0;entryY=0.5;entryDx=0;entryDy=0;entryPerimeter=0;" parent="1" source="DtuoqgoCq_AbvDf9QkuY-25" target="mSFzK-ioznIF6lpqcWxD-8" edge="1">
          <mxGeometry relative="1" as="geometry" />
        </mxCell>
        <mxCell id="DtuoqgoCq_AbvDf9QkuY-142" value="&lt;div&gt;Вывод сообщения&lt;/div&gt;&lt;div&gt;об успешном ответе заявки&lt;/div&gt;" style="points=[[0.25,0,0],[0.5,0,0],[0.75,0,0],[1,0.25,0],[1,0.5,0],[1,0.75,0],[0.75,1,0],[0.5,1,0],[0.25,1,0],[0,0.75,0],[0,0.5,0],[0,0.25,0]];shape=mxgraph.bpmn.task2;whiteSpace=wrap;rectStyle=rounded;size=10;html=1;container=1;expand=0;collapsible=0;taskMarker=abstract;" parent="1" vertex="1">
          <mxGeometry x="2200" y="1080" width="120" height="80" as="geometry" />
        </mxCell>
        <mxCell id="DtuoqgoCq_AbvDf9QkuY-143" value="" style="edgeStyle=elbowEdgeStyle;fontSize=12;html=1;endArrow=blockThin;endFill=1;rounded=0;exitX=1;exitY=0.5;exitDx=0;exitDy=0;exitPerimeter=0;entryX=0;entryY=0.5;entryDx=0;entryDy=0;entryPerimeter=0;" parent="1" source="DtuoqgoCq_AbvDf9QkuY-142" edge="1">
          <mxGeometry width="160" relative="1" as="geometry">
            <mxPoint x="2285" y="1240.0700000000002" as="sourcePoint" />
            <mxPoint x="2395" y="1120.0700000000002" as="targetPoint" />
          </mxGeometry>
        </mxCell>
        <mxCell id="DtuoqgoCq_AbvDf9QkuY-144" value="&lt;div&gt;Довольный продавец &lt;br&gt;&lt;/div&gt;&lt;div&gt;ответил на заявку&lt;/div&gt;" style="points=[[0.145,0.145,0],[0.5,0,0],[0.855,0.145,0],[1,0.5,0],[0.855,0.855,0],[0.5,1,0],[0.145,0.855,0],[0,0.5,0]];shape=mxgraph.bpmn.event;html=1;verticalLabelPosition=bottom;labelBackgroundColor=#ffffff;verticalAlign=top;align=center;perimeter=ellipsePerimeter;outlineConnect=0;aspect=fixed;outline=end;symbol=terminate2;" parent="1" vertex="1">
          <mxGeometry x="2395" y="1095" width="50" height="50" as="geometry" />
        </mxCell>
        <mxCell id="w8JK0ksPYoYFkluPFeoa-4" style="edgeStyle=orthogonalEdgeStyle;rounded=0;orthogonalLoop=1;jettySize=auto;html=1;exitX=1;exitY=0.5;exitDx=0;exitDy=0;exitPerimeter=0;entryX=0;entryY=0.5;entryDx=0;entryDy=0;entryPerimeter=0;endArrow=blockThin;endFill=1;" edge="1" parent="1" source="w8JK0ksPYoYFkluPFeoa-2" target="DtuoqgoCq_AbvDf9QkuY-142">
          <mxGeometry relative="1" as="geometry" />
        </mxCell>
      </root>
    </mxGraphModel>
  </diagram>
</mxfile>
